<svg width="250" height="250" viewBox="0 0 250 250" fill="none" xmlns="http://www.w3.org/2000/svg">
  <circle cx="125" cy="125" r="120" fill="#1e40af" stroke="#22c55e" stroke-width="4"/>
  <path d="M125 5C125 5 80 40 80 80C80 120 100 140 125 140C150 140 170 120 170 80C170 40 125 5 125 5Z" fill="#16a34a"/>
  <path d="M125 140C125 140 80 160 80 200C80 240 100 245 125 245C150 245 170 240 170 200C170 160 125 140 125 140Z" fill="#15803d"/>
  <circle cx="100" cy="100" r="15" fill="#fbbf24"/>
  <circle cx="150" cy="100" r="12" fill="#fbbf24"/>
  <path d="M60 180C60 180 80 200 100 180C120 160 140 180 160 180C180 180 200 200 200 180" stroke="#22c55e" stroke-width="3" fill="none"/>
</svg>
